<?xml version="1.0" encoding="UTF-8" standalone="no"?>
<!DOCTYPE svg PUBLIC "-//W3C//DTD SVG 1.1//EN" "http://www.w3.org/Graphics/SVG/1.1/DTD/svg11.dtd">
<svg xmlns="http://www.w3.org/2000/svg" xmlns:xlink="http://www.w3.org/1999/xlink" version="1.1"
	width="1080" height="1080" viewBox="-159.05 -133.33 1080 1080" xml:space="preserve">
<defs>
</defs>
<g transform="matrix(1 0 0 1 380.15 404.14)"  >
<path style="stroke: none; stroke-width: 1; stroke-dasharray: none; stroke-linecap: butt; stroke-dashoffset: 0; stroke-linejoin: miter; stroke-miterlimit: 4; fill: rgb(68,175,214); fill-rule: nonzero; opacity: 1;" vector-effect="non-scaling-stroke"  transform=" translate(-258.57, -242.73)" d="M 368.125 4.625 C 373.568 7.593 376.945 11.617 379.438 17.25 C 380.506 24.374 380.268 30.613 376.438 36.875 C 372.818 41.765 368.344 44.328 363 47 L 362 64 L 368.5 65.375 C 399.618 72.82 425.678 90.345 443.188 117.188 C 449.384 127.628 452.808 138.975 456.188 150.563 L 456.908 153.027 C 460.714 166.552 462.575 179.92 463.625 193.875 Q 463.897 197.322 464.174 200.769 Q 464.34999999999997 202.966 464.522 205.165 C 464.91499999999996 210.125 465.42 215.058 466 220 C 467.26 232.649 467.503 245.485 465 258 L 476 258 L 475.93 253.102 Q 475.901 249.862 475.875 246.625 L 475.825 243.41 C 475.784 236.82399999999998 475.952 230.32 478 224 C 481.006 220.994 483.824 221.404 488 221 C 488.182 220.362 488.364 219.724 488.55 219.066 C 488.802 218.24 489.05400000000003 217.41400000000002 489.312 216.562 L 490.051 214.066 L 491 212 L 494 211 C 492.787 214.724 491.491 218.378 490 222 L 492.563 222 C 497.561 223.454 500.178 226.715 503 231 C 507.003 241.676 507.31 253.167 507.3 264.45 L 507.314 268.144 Q 507.322 271.974 507.31600000000003 275.80400000000003 C 507.312 279.689 507.336 283.572 507.36100000000005 287.45500000000004 Q 507.36500000000007 291.20200000000006 507.36300000000006 294.94900000000007 L 507.3910000000001 298.4220000000001 C 507.33400000000006 308.4680000000001 505.5930000000001 318.44200000000006 500.00000000000006 327.00000000000006 C 495.73300000000006 331.00900000000007 491.69000000000005 331.1580000000001 486.00000000000006 331.18800000000005 L 482.25000000000006 331.23 C 479 331 479 331 476 329 C 475.28 325.34 475.217 321.734 475 318 L 464 318 L 464.035 322.063 C 464.18300000000005 347.637 463.773 373.283 462.187 398.813 L 462.012 402.111 C 461.272 412.569 458.802 421.554 450.957 428.801 C 443.52299999999997 434.33 434.99 438.276 426.52299999999997 441.965 C 421.919 443.988 417.539 446.346 413.12499999999994 448.75 C 387.2339999999999 462.624 387.2339999999999 462.624 372.74999999999994 463.563 L 366 464 L 365 483 L 152 483 L 152 463 L 142 463 C 137.149 461.858 132.60399999999998 459.89 128 458 L 125.578 457.025 C 114.215 452.428 103.398 447.33799999999997 92.855 441.08599999999996 C 90.9904949309525 439.99979219949756 89.11166297043363 438.93836548510933 87.2190000000001 437.902 C 75.165 431.247 63.798 423.976 58 411 C 57.384 407.868 57.384 407.868 57.05 404.445 L 56.861 402.51 C 56.660999999999994 400.383 56.485 398.255 56.312999999999995 396.125 L 56.120999999999995 393.889 C 54.901999999999994 379.312 54.730999999999995 364.746 54.74999999999999 350.125 L 54.751999999999995 346.897 Q 54.763 342.327 54.797 337.757 L 54.809999999999995 334.991 C 54.855999999999995 330.871 54.964999999999996 327.01599999999996 55.99999999999999 323 L 53.562999999999995 322.625 L 51 322 L 50 320 C 47.68594671647994 319.2676121921833 45.35168408258993 318.6006800110719 42.999999999999936 318 L 43.035 320.082 L 43.062999999999995 322.812 L 43.09799999999999 325.52000000000004 C 43 328 43 328 42 331 C 39.291 331.081 36.585 331.14 33.875 331.188 L 31.57 331.264 C 26.623 331.32800000000003 23.262 330.79 19 328 C 10.096 318.433 9.848 303.593 9.832 291.313 L 9.822000000000001 288.58099999999996 Q 9.815000000000001 285.73199999999997 9.815000000000001 282.883 C 9.813 280.03499999999997 9.795000000000002 277.188 9.775000000000002 274.34 C 9.665000000000003 238.93399999999997 9.665000000000003 238.93399999999997 18.125 226.438 C 22.748 222.518 27.679000000000002 221.85799999999998 33.647999999999996 222.113 C 35.773999999999994 222.338 37.88999999999999 222.66 40 223 C 43.378 230.432 43.244 238.413 43.563 246.438 L 43.693000000000005 249.521 Q 43.852000000000004 253.261 44.00000000000001 257 L 50.00000000000001 257 L 50.15200000000001 253.728 Q 50.97200000000001 236.17600000000002 51.86700000000001 218.62800000000001 Q 52.049000000000014 215.007 52.22700000000001 211.38600000000002 C 53.465 186.434 57.055 163.006 64 139 L 64.727 136.487 C 69.683 119.722 76.407 106.257 89 94 L 91.023 91.984 C 105.63 78.302 124.992 72.598 144 68 L 148 67 L 147 48 L 142.375 46 C 136.337 42.964 132.805 39.248 130.16 33.022999999999996 C 128.405 27.262999999999998 128.547 21.424999999999997 130.906 15.862999999999996 C 134.302 9.841 139.401 5.2 146 3 C 151.835 2.368 157.001 2.599 162.176 5.527 C 167.515 9.837 170.522 15.725000000000001 171.273 22.445 C 171.548 29.682000000000002 170.271 35.07 166 41 C 162.352 44.54 158.74 46.104 154 48 L 153 64 L 157.164 62.941 L 162.625 61.562000000000005 L 165.363 60.865 L 168.039 60.191 L 170.48299999999998 59.573 C 176.07299999999998 58.301 181.71799999999996 57.657000000000004 187.414 57.063 L 189.868 56.805 Q 192.442 56.535 195.017 56.271 Q 198.845 55.872 202.672 55.461 C 251.05 50.388 299.078 52.491 346.942 60.695 L 349.026 61.049 C 353.76 61.879 353.76 61.879 356 63 L 356 46 L 350 45 C 344.322 41.515 339.771 36.480000000000004 338 30 C 337.017 23.066 337.28 17.416 341.516 11.68 C 349.05 3.154 357.48600000000005 -0.05600000000000094 368.125 4.625" stroke-linecap="round" />
</g>
<g transform="matrix(1 0 0 1 337.45 438.8)"  >
<path style="stroke: none; stroke-width: 1; stroke-dasharray: none; stroke-linecap: butt; stroke-dashoffset: 0; stroke-linejoin: miter; stroke-miterlimit: 4; fill: rgb(41,85,134); fill-rule: nonzero; opacity: 1;" vector-effect="non-scaling-stroke"  transform=" translate(-215.88, -277.4)" d="M 151 72 L 149 84 L 145.3 85.285 C 129.36 90.88799999999999 129.36 90.88799999999999 114.92600000000002 99.559 C 112.90700000000001 101.069 110.86800000000002 102.167 108.62500000000001 103.313 C 104.27800000000002 105.662 101.39200000000001 108.443 98.00000000000001 112 L 96.00000000000001 112 L 95.00000000000001 115 C 93.33857528952177 116.67190039236176 91.67190039236178 118.33857528952164 90.00000000000001 119.99999999999989 C 88.57199460076366 121.9205761403981 87.19648609471504 123.87963370961883 85.875 125.87499999999999 L 83.86700000000002 128.867 C 79.35000000000002 136.446 78.09200000000001 143.315 76.87500000000001 152 L 76.36300000000001 155.484 C 75.89900000000002 158.655 75.44800000000001 161.827 75.00000000000001 165 L 74.48400000000001 167.918 C 73.71100000000001 173.377 73.83600000000001 178.875 73.82300000000001 184.377 L 73.80300000000001 188.133 Q 73.78000000000002 193.24300000000002 73.76700000000001 198.353 Q 73.75900000000001 201.586 73.74700000000001 204.821 C 73.71300000000001 214.888 73.69700000000002 224.95499999999998 73.68900000000001 235.022 Q 73.68700000000001 238.63899999999998 73.682 242.255 C 73.633 289.555 74.227 336.68 77.468 383.887 C 77.87 389.808 78.206 395.729 78.50800000000001 401.656 L 78.763 406.523 Q 78.94900000000001 410.053 79.116 413.583 C 79.217 415.733 79.329 417.882 79.442 420.031 L 79.62299999999999 423.75100000000003 C 79.98799999999999 426.898 80.52799999999999 429.201 81.99999999999999 432.00000000000006 C 84.52399999999999 433.36000000000007 84.52399999999999 433.36000000000007 86.99999999999999 434.00000000000006 L 86.99999999999999 436.00000000000006 L 91.99999999999999 437.00000000000006 L 91.99999999999999 439.00000000000006 L 93.72299999999998 439.1840000000001 L 96.06299999999999 439.43700000000007 L 98.34799999999998 439.6840000000001 C 100.20799999999998 439.9050000000001 102.06199999999998 440.1770000000001 103.90999999999998 440.48500000000007 C 109.27799999999998 441.2510000000001 114.68499999999999 441.3670000000001 120.09999999999998 441.55500000000006 L 123.69599999999998 441.68300000000005 C 137.267 442.12700000000007 150.83399999999997 442.13300000000004 164.411 442.11300000000006 L 172.905 442.11400000000003 Q 181.955 442.11400000000003 191.005 442.10600000000005 Q 204.091 442.095 217.175 442.09400000000005 Q 238.41500000000002 442.09000000000003 259.656 442.07500000000005 Q 280.26 442.06100000000004 300.86400000000003 442.05500000000006 L 303.44000000000005 442.05500000000006 L 316.23800000000006 442.05000000000007 Q 369.12 442.034 422 442 C 421 445 421 445 418.415 446.562 L 414.98 448.21500000000003 L 413.12 449.115 Q 411.16 450.059 409.194 450.988 C 407.22700000000003 451.918 405.271 452.867 403.314 453.818 C 390.78 459.855 379.92 463.443 366 464 L 365 483 L 152 483 L 152 463 L 142 463 C 137.149 461.858 132.60399999999998 459.89 128 458 L 125.578 457.025 C 114.215 452.428 103.398 447.33799999999997 92.855 441.08599999999996 C 90.9904949309525 439.99979219949756 89.11166297043363 438.93836548510933 87.2190000000001 437.902 C 75.165 431.247 63.798 423.976 58 411 C 57.384 407.868 57.384 407.868 57.05 404.445 L 56.861 402.51 C 56.660999999999994 400.383 56.485 398.255 56.312999999999995 396.125 L 56.120999999999995 393.889 C 54.901999999999994 379.312 54.730999999999995 364.746 54.74999999999999 350.125 L 54.751999999999995 346.897 Q 54.763 342.327 54.797 337.757 L 54.809999999999995 334.991 C 54.855999999999995 330.871 54.964999999999996 327.01599999999996 55.99999999999999 323 L 53.562999999999995 322.625 L 51 322 L 50 320 C 47.68594671647994 319.2676121921833 45.35168408258993 318.6006800110719 42.999999999999936 318 L 43.035 320.082 L 43.062999999999995 322.812 L 43.09799999999999 325.52000000000004 C 43 328 43 328 42 331 C 39.291 331.081 36.585 331.14 33.875 331.188 L 31.57 331.264 C 26.623 331.32800000000003 23.262 330.79 19 328 C 10.096 318.433 9.848 303.593 9.832 291.313 L 9.822000000000001 288.58099999999996 Q 9.815000000000001 285.73199999999997 9.815000000000001 282.883 C 9.813 280.03499999999997 9.795000000000002 277.188 9.775000000000002 274.34 C 9.665000000000003 238.93399999999997 9.665000000000003 238.93399999999997 18.125 226.438 C 22.748 222.518 27.679000000000002 221.85799999999998 33.647999999999996 222.113 C 35.773999999999994 222.338 37.88999999999999 222.66 40 223 C 43.378 230.432 43.244 238.413 43.563 246.438 L 43.693000000000005 249.521 Q 43.852000000000004 253.261 44.00000000000001 257 L 50.00000000000001 257 L 50.15200000000001 253.728 Q 50.97200000000001 236.17600000000002 51.86700000000001 218.62800000000001 Q 52.049000000000014 215.007 52.22700000000001 211.38600000000002 C 53.465 186.434 57.055 163.006 64 139 L 64.727 136.487 C 69.683 119.722 76.407 106.257 89 94 L 91.023 91.984 C 108.17 75.924 128.134 70.642 151 72" stroke-linecap="round" />
</g>
<g transform="matrix(1 0 0 1 386.63 430.39)"  >
<path style="stroke: none; stroke-width: 1; stroke-dasharray: none; stroke-linecap: butt; stroke-dashoffset: 0; stroke-linejoin: miter; stroke-miterlimit: 4; fill: rgb(250,229,205); fill-rule: nonzero; opacity: 1;" vector-effect="non-scaling-stroke"  transform=" translate(-265.05, -268.99)" d="M 341.445 174.71 L 343.591 174.69 C 345.91200000000003 174.67 348.233 174.666 350.555 174.664 L 355.437 174.64399999999998 Q 360.54400000000004 174.62699999999998 365.65000000000003 174.629 C 369.99300000000005 174.629 374.33500000000004 174.602 378.67800000000005 174.56799999999998 C 382.03800000000007 174.546 385.3980000000001 174.54199999999997 388.75800000000004 174.54299999999998 Q 391.158 174.539 393.55800000000005 174.516 C 403.55800000000005 174.428 411.84400000000005 174.646 419.81200000000007 181.375 C 425.17300000000006 187.808 427.11500000000007 191.954 427.14700000000005 200.22899999999998 L 427.16900000000004 204.10699999999997 L 427.177 208.35699999999997 L 427.197 212.83699999999996 Q 427.225 220.18899999999996 427.238 227.54299999999995 L 427.251 232.61299999999994 Q 427.28 244.52399999999994 427.292 256.43699999999995 Q 427.30699999999996 270.169 427.36899999999997 283.90199999999993 Q 427.41299999999995 294.5279999999999 427.417 305.15399999999994 C 427.419 309.3809999999999 427.428 313.60799999999995 427.453 317.83599999999996 Q 427.488 323.806 427.47099999999995 329.77599999999995 Q 427.47099999999995 331.95899999999995 427.49099999999993 334.143 C 427.56699999999995 342.76599999999996 427.49499999999995 350.724 421.65899999999993 357.57399999999996 C 416.16999999999996 362.66099999999994 409.4309999999999 363.29999999999995 402.26399999999995 363.29099999999994 L 400.02399999999994 363.3109999999999 C 397.60099999999994 363.3299999999999 395.17699999999996 363.33399999999995 392.75399999999996 363.3359999999999 L 387.662 363.3559999999999 Q 382.337 363.3729999999999 377.013 363.37099999999987 C 372.47999999999996 363.37099999999987 367.947 363.39799999999985 363.41299999999995 363.43199999999985 C 359.90999999999997 363.45399999999984 356.4069999999999 363.45799999999986 352.90399999999994 363.4569999999998 Q 350.39899999999994 363.4619999999998 347.89199999999994 363.4839999999998 C 338.1069999999999 363.5659999999998 330.93899999999996 363.4139999999998 322.79299999999995 357.3589999999998 L 321.18699999999995 355.74999999999983 L 319.54299999999995 354.17199999999985 C 314.143 346.57199999999983 314.56399999999996 338.43599999999986 314.59599999999995 329.4809999999999 L 314.57599999999996 325.0929999999999 C 314.55699999999996 321.1379999999999 314.558 317.1829999999999 314.56399999999996 313.2289999999999 C 314.56699999999995 309.9189999999999 314.561 306.6089999999999 314.55499999999995 303.2989999999999 Q 314.53499999999997 291.5789999999999 314.554 279.8589999999999 C 314.565 271.8179999999999 314.551 263.77699999999993 314.524 255.73599999999993 C 314.50263206373717 248.81402198252607 314.4952987153306 241.8920077546806 314.50200000000007 234.96999999999878 C 314.505 230.84399999999994 314.502 226.71799999999993 314.485 222.59199999999993 Q 314.463 216.76899999999992 314.493 210.94499999999994 Q 314.498 208.81799999999993 314.483 206.69099999999995 C 314.419 197.37899999999993 315.01 189.13299999999995 320.895 181.56199999999995 L 322.81199999999995 179.99999999999994 L 324.70699999999994 178.37499999999994 C 329.9529999999999 175.22899999999996 335.44199999999995 174.74499999999995 341.44499999999994 174.70899999999995 M 127.81799999999993 174.59599999999995 L 130.04799999999992 174.57599999999994 C 132.4579999999999 174.55699999999993 134.86499999999992 174.56099999999995 137.2729999999999 174.56599999999995 L 142.34599999999992 174.55099999999996 Q 147.64899999999992 174.53799999999995 152.9519999999999 174.55399999999995 C 157.45999999999992 174.56499999999994 161.96699999999993 174.54499999999996 166.4749999999999 174.51599999999993 C 169.96499999999992 174.49799999999993 173.4549999999999 174.49799999999993 176.9449999999999 174.50399999999993 Q 179.43499999999992 174.50399999999993 181.9269999999999 174.48499999999993 C 191.8729999999999 174.42099999999994 201.1819999999999 174.42999999999992 209.3669999999999 180.85899999999992 L 210.87499999999991 182.74999999999991 L 212.42999999999992 184.60999999999993 C 217.81799999999993 192.81199999999993 218.58099999999993 198.66199999999992 218.51799999999992 208.40199999999993 Q 218.52599999999993 210.41599999999994 218.53799999999993 212.42999999999992 C 218.55699999999993 216.0589999999999 218.54999999999993 219.68699999999993 218.53799999999993 223.3149999999999 C 218.52799999999993 227.12699999999992 218.53699999999992 230.9389999999999 218.54299999999992 234.75099999999992 Q 218.5529999999999 244.3549999999999 218.52099999999993 253.95899999999992 C 218.49999999999994 261.33899999999994 218.50699999999992 268.7169999999999 218.52899999999994 276.0949999999999 Q 218.55499999999995 285.62999999999994 218.53899999999993 295.16399999999993 C 218.53299999999993 298.9509999999999 218.53199999999993 302.73799999999994 218.54499999999993 306.52399999999994 Q 218.56199999999993 311.8709999999999 218.52499999999992 317.21899999999994 C 218.51799999999992 319.1329999999999 218.52999999999992 321.04799999999994 218.54199999999992 322.96299999999997 C 218.4639999999999 331.013 217.95899999999992 340.00399999999996 211.9859999999999 346.03299999999996 C 206.0909999999999 350.75999999999993 201.0709999999999 351.15199999999993 193.65499999999992 351.17699999999996 L 191.1109999999999 351.19699999999995 Q 186.9499999999999 351.22499999999997 182.7889999999999 351.23799999999994 L 179.9139999999999 351.2509999999999 Q 172.3849999999999 351.2809999999999 164.8569999999999 351.2949999999999 C 159.6769999999999 351.3059999999999 154.4969999999999 351.3409999999999 149.31599999999992 351.3799999999999 C 145.32799999999992 351.4059999999999 141.34099999999992 351.4149999999999 137.35299999999992 351.4179999999999 Q 134.48799999999991 351.4259999999999 131.6239999999999 351.4529999999999 C 128.9499999999999 351.4779999999999 126.2779999999999 351.4769999999999 123.60399999999991 351.4699999999999 L 121.22399999999992 351.5089999999999 C 116.02899999999991 351.4589999999999 113.14799999999991 350.3829999999999 108.99999999999991 346.9999999999999 C 104.42099999999992 342.0399999999999 102.75299999999991 337.75099999999986 102.73999999999991 331.02999999999986 L 102.7179999999999 327.40299999999985 L 102.72499999999991 323.44799999999987 L 102.70999999999991 319.26299999999986 C 102.69599999999991 315.47999999999985 102.69599999999991 311.6969999999999 102.69799999999991 307.91299999999984 Q 102.69799999999991 303.16899999999987 102.68999999999991 298.42299999999983 Q 102.67399999999991 287.22299999999984 102.68399999999991 276.02099999999984 C 102.68999999999991 268.33099999999985 102.67799999999991 260.6419999999998 102.65699999999991 252.95299999999983 C 102.63988223568637 246.34034799918555 102.633215560693 239.72767307370864 102.63699999999947 233.1150000000003 C 102.63799999999992 229.17099999999985 102.63599999999991 225.22599999999983 102.62199999999991 221.28199999999984 Q 102.60399999999991 215.71199999999985 102.62399999999991 210.14199999999983 C 102.62799999999991 208.14099999999982 102.61599999999991 206.13999999999982 102.60399999999991 204.13899999999984 C 102.66099999999992 194.49099999999984 103.80899999999991 187.08299999999983 110.01199999999992 179.50799999999984 C 115.36099999999992 175.45099999999985 121.27999999999992 174.62299999999985 127.81799999999991 174.59599999999983" stroke-linecap="round" />
</g>
<g transform="matrix(1 0 0 1 367.81 432.96)"  >
<path style="stroke: none; stroke-width: 1; stroke-dasharray: none; stroke-linecap: butt; stroke-dashoffset: 0; stroke-linejoin: miter; stroke-miterlimit: 4; fill: rgb(56,131,177); fill-rule: nonzero; opacity: 1;" vector-effect="non-scaling-stroke"  transform=" translate(-246.23, -271.56)" d="M 113 100 C 114 103 114 103 113.145 105.066 L 111.813 107.562 C 108.44 114.682 106.91 121.92999999999999 105.45400000000001 129.626 C 105.16428435273738 131.14410574991243 104.8589348124449 132.65918616544664 104.53800000000001 134.171 C 100.72300000000001 152.17499999999998 101.71800000000002 170.70299999999997 102.00000000000001 189 L 103.17200000000001 187.102 L 104.75000000000001 184.625 C 105.26000000000002 183.813 105.77000000000001 183.001 106.29700000000001 182.165 C 108.06700000000001 179.915 109.36900000000001 179.041 112.00000000000001 178 L 110.50400000000002 180.23 L 108.56200000000003 183.188 L 106.62900000000002 186.105 C 104.06700000000002 190.65699999999998 103.87400000000002 194.81699999999998 103.85300000000002 199.976 L 103.83100000000002 203.608 L 103.82300000000002 207.568 L 103.80300000000003 211.758 Q 103.77500000000002 218.622 103.76200000000003 225.488 L 103.74900000000002 230.225 Q 103.72000000000003 241.351 103.70800000000003 252.477 Q 103.69300000000003 265.302 103.63100000000003 278.127 Q 103.58700000000003 288.052 103.58300000000003 297.979 C 103.5824292339118 301.9273597986272 103.57042918363584 305.87570967397994 103.54699999999951 309.824 Q 103.51200000000003 315.398 103.52900000000002 320.971 C 103.53000000000003 322.976 103.51100000000002 324.981 103.49100000000003 326.985 C 103.53200000000002 334.139 104.07800000000003 338.947 108.00000000000003 345 C 112.92500000000003 349.799 117.61800000000002 351.221 124.39500000000002 351.414 L 128.03700000000003 351.531 L 131.81200000000004 351.625 L 135.64600000000004 351.742 Q 140.32300000000004 351.88300000000004 145.00000000000006 352 L 145.80500000000006 355.617 C 146.76900000000006 359.457 148.17900000000006 362.658 150.12500000000006 366.125 L 152.00800000000007 369.492 L 152.99800000000008 371.22900000000004 C 154.00945908104543 373.02284361829857 155.00748699642193 374.8242273373015 155.992 376.633 C 159.46600000000007 382.92300000000006 163.1020000000001 388.81000000000006 167.75000000000009 394.32800000000003 C 169 396 169 396 169 398 L 171 398 C 176 403.476 176 403.476 176 406 L 178 406 C 179.34 407.398 179.34 407.398 180.938 409.375 C 196.854 428.032 214.017 436.502 238 439 C 244.539 439.464 251.085 439.464 257.637 439.477 Q 260.315 439.498 262.992 439.524 C 267.61600000000004 439.565 272.24 439.59 276.86400000000003 439.611 C 284.32800000000003 439.64799999999997 291.793 439.70799999999997 299.25700000000006 439.77 C 301.8550000000001 439.789 304.45200000000006 439.79999999999995 307.05000000000007 439.811 L 311.7680000000001 439.842 L 313.9580000000001 439.84499999999997 C 318.88700000000006 439.88699999999994 318.88700000000006 439.88699999999994 320.00000000000006 440.99999999999994 C 323.10400000000004 441.12499999999994 326.18800000000005 441.1859999999999 329.29300000000006 441.2049999999999 L 332.2490000000001 441.2349999999999 Q 337.11000000000007 441.2819999999999 341.97300000000007 441.3159999999999 L 348.6940000000001 441.3789999999999 Q 357.5590000000001 441.4609999999999 366.4240000000001 441.5319999999999 Q 375.4640000000001 441.6089999999999 384.50200000000007 441.6929999999999 Q 402.2510000000001 441.8549999999999 420.00000000000006 441.99999999999994 L 420.00000000000006 442.99999999999994 C 379.99767062312867 443.0261359255376 339.9953365288063 443.0444692592127 299.99299999997584 443.05499999999296 L 297.43500000000006 443.05499999999995 Q 277.0450000000001 443.06299999999993 256.6550000000001 443.07699999999994 Q 235.67000000000007 443.09099999999995 214.6850000000001 443.09399999999994 Q 201.77800000000008 443.09599999999995 188.8710000000001 443.10799999999995 Q 179.9730000000001 443.11499999999995 171.0740000000001 443.1139999999999 Q 165.97000000000008 443.1119999999999 160.8670000000001 443.1189999999999 C 147.1070000000001 443.1389999999999 133.3540000000001 443.03899999999993 119.5990000000001 442.6739999999999 C 118.18140680838847 442.63700248490784 116.76373697266773 442.60300240890416 115.34600000000009 442.57199999999995 C 113.3774740048689 442.525267322228 111.40912725630317 442.4712669541894 109.44100000000002 442.4099999999999 L 106.0320000000001 442.31699999999995 C 102.9840000000001 441.99799999999993 100.79000000000009 441.21999999999997 98.0000000000001 439.99999999999994 L 94.7500000000001 439.49999999999994 L 92 439 L 91 437 L 89 436.5 L 87 436 L 86 434 L 83.563 433.313 C 81 432 81 432 79.886 428.99 C 78.786 424.64 78.514 420.313 78.25399999999999 415.848 L 78.1 413.248 C 77.44905609404299 402.09852650669586 76.81905498270271 390.9478401698823 76.21000000000058 379.79599999999823 Q 75.907 374.34499999999997 75.6 368.895 C 73.323 328.11699999999996 72.49 287.456 72.55799999999999 246.61999999999998 C 72.56296478408056 240.43864856474937 72.5519647473918 234.25729461501123 72.52499999999918 228.07600000000107 Q 72.49099999999999 218.88599999999997 72.502 209.69599999999997 C 72.505 206.10799999999998 72.503 202.51999999999998 72.485 198.93199999999996 C 72.355 169.696 72.35 137.95 93 115 C 95.564 112.53 98.236 110.242 101 108 L 103.563 105.813 C 106.578 103.57000000000001 109.70700000000001 101.808 113 100" stroke-linecap="round" />
</g>
<g transform="matrix(1 0 0 1 381.58 623.9)"  >
<path style="stroke: none; stroke-width: 1; stroke-dasharray: none; stroke-linecap: butt; stroke-dashoffset: 0; stroke-linejoin: miter; stroke-miterlimit: 4; fill: rgb(14,17,41); fill-rule: nonzero; opacity: 1;" vector-effect="non-scaling-stroke"  transform=" translate(-260, -462.5)" d="M 98 442 L 422 442 C 421 445 421 445 418.415 446.562 L 414.98 448.21500000000003 L 413.12 449.115 Q 411.16 450.059 409.194 450.988 C 407.22700000000003 451.918 405.271 452.867 403.314 453.818 C 390.78 459.855 379.92 463.443 366 464 L 365 483 L 152 483 L 152 463 L 142 463 C 137.149 461.858 132.60399999999998 459.891 128 458 L 125.465 456.977 C 122.6999911178915 455.8528106036819 119.94062325879544 454.7147963646202 117.18699999999976 453.563 C 116.317 453.203 115.445 452.84499999999997 114.547 452.47499999999997 C 108.61 449.94 103.118 446.97 98 443 z" stroke-linecap="round" />
</g>
<g transform="matrix(1 0 0 1 214.52 383.4)"  >
<path style="stroke: none; stroke-width: 1; stroke-dasharray: none; stroke-linecap: butt; stroke-dashoffset: 0; stroke-linejoin: miter; stroke-miterlimit: 4; fill: rgb(61,143,188); fill-rule: nonzero; opacity: 1;" vector-effect="non-scaling-stroke"  transform=" translate(-92.95, -222)" d="M 113 100 C 114 103 114 103 113.145 105.066 L 111.813 107.562 C 108.44 114.682 106.91 121.92999999999999 105.45400000000001 129.626 C 105.16428435273738 131.14410574991243 104.8589348124449 132.65918616544664 104.53800000000001 134.171 C 100.72300000000001 152.17499999999998 101.71800000000002 170.70299999999997 102.00000000000001 189 L 103.17200000000001 187.102 L 104.75000000000001 184.625 C 105.26000000000002 183.813 105.77000000000001 183.001 106.29700000000001 182.165 C 108.06700000000001 179.915 109.36900000000001 179.041 112.00000000000001 178 L 110.50400000000002 180.23 L 108.56200000000003 183.188 L 106.62900000000002 186.105 C 104.06000000000002 190.67 103.87500000000001 194.82399999999998 103.87300000000002 199.99599999999998 L 103.86400000000002 203.64199999999997 L 103.87100000000002 207.61499999999998 L 103.86500000000002 211.82 Q 103.86100000000002 217.51999999999998 103.86500000000002 223.218 C 103.86800000000002 227.197 103.86500000000002 231.176 103.86500000000002 235.155 Q 103.86100000000002 245.176 103.87000000000002 255.199 Q 103.87600000000002 266.78000000000003 103.86800000000002 278.363 Q 103.86100000000002 288.312 103.86500000000002 298.261 Q 103.86800000000002 304.201 103.86400000000002 310.141 Q 103.86000000000001 315.725 103.86900000000001 321.31100000000004 Q 103.87100000000001 324.33500000000004 103.86400000000002 327.35800000000006 L 103.87300000000002 331.0040000000001 L 103.87400000000002 334.1650000000001 C 103.99400000000003 336.88200000000006 104.38800000000002 339.3550000000001 105.00000000000003 342.00000000000006 L 101.00000000000003 340.00000000000006 L 100.00000000000003 344.00000000000006 L 98.00000000000003 334.00000000000006 L 96.00000000000003 334.00000000000006 C 91.95600000000003 323.1070000000001 88.64000000000003 312.31700000000006 86.00000000000003 301.00000000000006 L 85.04700000000003 297.41400000000004 C 78.308 270.52 76.858 242.581 76 215 L 74 214 L 74.098 208.238 C 74.062 205.978 74.062 205.978 73.508 203.726 C 70.719 188.781 72.658 171.689 74.813 156.75 L 75.313 153.277 C 78.221 134.82 86.41 119.833 101 108 L 103.563 105.813 C 106.578 103.57000000000001 109.70700000000001 101.808 113 100" stroke-linecap="round" />
</g>
<g transform="matrix(1 0 0 1 390.58 633.4)"  >
<path style="stroke: none; stroke-width: 1; stroke-dasharray: none; stroke-linecap: butt; stroke-dashoffset: 0; stroke-linejoin: miter; stroke-miterlimit: 4; fill: rgb(27,46,84); fill-rule: nonzero; opacity: 1;" vector-effect="non-scaling-stroke"  transform=" translate(-269, -472)" d="M 384 461 C 378.666 464.314 372.072 463.663 366 464 L 365 483 L 154 483 C 154 464 154 464 155 463 C 156.63648245005982 462.90113569103295 158.27553490686765 462.8507802645878 159.91499999999996 462.849 L 163.15 462.823 L 166.74 462.811 L 170.508 462.78499999999997 Q 174.59900000000002 462.75899999999996 178.691 462.73999999999995 C 183.071 462.71999999999997 187.453 462.69199999999995 191.834 462.66399999999993 C 198.09365059159478 462.6246385410651 204.35331783831492 462.58797187100015 210.61299999999716 462.55399999999935 C 225.987 462.4699999999999 241.36 462.3699999999999 256.734 462.2699999999999 L 263.99199999999996 462.2229999999999 C 292.1995155763612 462.04570701447705 320.4063457433157 461.7723720967622 348.61199999999815 461.40299999999837 Q 358.99499999999995 461.2689999999999 369.38 461.1269999999999 L 373.05 461.0759999999999 L 376.197 461.0309999999999 Q 380.097 460.9889999999999 384 460.9999999999999" stroke-linecap="round" />
</g>
<g transform="matrix(1 0 0 1 225.44 483.01)"  >
<path style="stroke: none; stroke-width: 1; stroke-dasharray: none; stroke-linecap: butt; stroke-dashoffset: 0; stroke-linejoin: miter; stroke-miterlimit: 4; fill: rgb(48,109,158); fill-rule: nonzero; opacity: 1;" vector-effect="non-scaling-stroke"  transform=" translate(-103.87, -321.61)" d="M 73 201 L 74 201 C 74.602 204.161 75 207.024 74.938 210.25 C 74.687 213.147 74.687 213.147 77 215 C 77.27 217.68 77.42 220.274 77.492 222.96 L 77.683 227.979 L 77.777 230.64800000000002 C 78.415 248.33200000000002 79.96600000000001 265.548 83 283 L 83.443 285.64 C 84.51 291.984 85.596 298.01 88 304 C 88.654 306.56 89.278 309.115 89.875 311.688 C 91.229 317.358 92.845 322.658 95.265 327.984 C 96 330 96 330 96 334 L 98 334 C 100.242 337.616 100.331 340.782 100.492 344.984 L 100.683 349.224 L 100.77600000000001 351.46299999999997 C 102.57200000000002 395.907 102.57200000000002 395.907 122.93800000000002 433.883 C 124.15771846283366 434.90408375381 125.40553187712723 435.89113017452325 126.68000000000004 436.84299999999996 L 128 438 L 128 440 L 135 441 L 135 442 Q 128.301 442.075 121.603 442.11 Q 119.326 442.125 117.04899999999999 442.15000000000003 C 114.8623998855132 442.17349812167527 112.67571670534777 442.1884982349538 110.48899999999996 442.195 L 106.505 442.22700000000003 C 103.14699999999999 442.01000000000005 101.024 441.379 98 440.00000000000006 L 94.75 439.50000000000006 L 92 439 L 91 437 L 89 436.5 L 87 436 L 86 434 L 83.563 433.313 C 81 432 81 432 79.886 428.99 C 78.78699999999999 424.644 78.5 420.312 78.25399999999999 415.848 L 78.085 413.12100000000004 C 77.90199999999999 410.10100000000006 77.731 407.08200000000005 77.56299999999999 404.06300000000005 L 77.37699999999998 400.80100000000004 Q 76.87999999999998 392.0210000000001 76.40399999999998 383.24000000000007 Q 76.02099999999999 376.22600000000006 75.57199999999999 369.21700000000004 C 71.982 313.197 72.701 257.108 73 201" stroke-linecap="round" />
</g>
<g transform="matrix(1 0 0 1 489.98 439.53)"  >
<path style="stroke: none; stroke-width: 1; stroke-dasharray: none; stroke-linecap: butt; stroke-dashoffset: 0; stroke-linejoin: miter; stroke-miterlimit: 4; fill: rgb(18,18,41); fill-rule: nonzero; opacity: 1;" vector-effect="non-scaling-stroke"  transform=" translate(-368.4, -278.13)" d="M 386.125 249.938 L 389 252 L 391.5 253.625 C 397.518 259.342 401.081 266.535 401.293 274.801 C 401.396 286.883 399.257 294.851 390.598 303.793 C 382.74600000000004 310.464 373.793 312.021 363.785 311.493 C 358.398 310.792 354.45500000000004 309.03499999999997 350 306 L 347.25 304.25 C 340.088 297.088 335.956 288.84 335.5 278.75 C 335.756 269.133 339.331 260.726 345.969 253.754 C 357.92 243.434 372.58799999999997 241.54399999999998 386.125 249.938" stroke-linecap="round" />
</g>
<g transform="matrix(1 0 0 1 282.21 439.36)"  >
<path style="stroke: none; stroke-width: 1; stroke-dasharray: none; stroke-linecap: butt; stroke-dashoffset: 0; stroke-linejoin: miter; stroke-miterlimit: 4; fill: rgb(19,19,41); fill-rule: nonzero; opacity: 1;" vector-effect="non-scaling-stroke"  transform=" translate(-160.64, -277.95)" d="M 176.418 248.543 C 185.058 253.419 190.04500000000002 260.532 193 270 C 194.681 280.678 192.317 289.465 186.25 298.25 C 180.163 305.801 172.782 310.257 163.113 311.316 C 153.223 311.70899999999995 146.267 309.20099999999996 138.688 302.875 C 132.351 296.847 128.428 289.623 127.76199999999999 280.863 C 127.52999999999999 269.785 129.506 262.988 137.07 254.855 C 148.466 243.898 161.914 241.495 176.418 248.54299999999998" stroke-linecap="round" />
</g>
<g transform="matrix(1 0 0 1 480.33 194.64)"  >
<path style="stroke: none; stroke-width: 1; stroke-dasharray: none; stroke-linecap: butt; stroke-dashoffset: 0; stroke-linejoin: miter; stroke-miterlimit: 4; fill: rgb(63,151,195); fill-rule: nonzero; opacity: 1;" vector-effect="non-scaling-stroke"  transform=" translate(-358.76, -33.23)" d="M 368.125 4.625 C 373.568 7.593 376.945 11.617 379.438 17.25 C 380.506 24.374 380.268 30.613 376.438 36.875 C 372.818 41.765 368.344 44.328 363 47 L 362 64 L 356 63 L 356 46 L 350 45 C 344.322 41.515 339.771 36.480000000000004 338 30 C 337.017 23.066 337.28 17.416 341.516 11.68 C 349.05 3.154 357.48600000000005 -0.05600000000000094 368.125 4.625" stroke-linecap="round" />
</g>
<g transform="matrix(1 0 0 1 276.47 180.9)"  >
<path style="stroke: none; stroke-width: 1; stroke-dasharray: none; stroke-linecap: butt; stroke-dashoffset: 0; stroke-linejoin: miter; stroke-miterlimit: 4; fill: rgb(72,174,213); fill-rule: nonzero; opacity: 1;" vector-effect="non-scaling-stroke"  transform=" translate(-154.89, -19.49)" d="M 160.25 4.438 C 165.323 7.308 168.817 12.457999999999998 170.648 17.941 C 171.079 20.464 171.17 22.878 171.188 25.438 L 171.23 28.246 C 170.98 31.238 170.40699999999998 33.349 169 36 C 164.882 37.373 162.18 35.882 158.313 34.375 L 156.13299999999998 33.535 C 150.03699999999998 31.126999999999995 144.486 28.718999999999998 139.99999999999997 23.812999999999995 C 138.25299999999996 18.897999999999996 137.97899999999998 13.777999999999995 139.79699999999997 8.831999999999995 C 143.86299999999997 1.2479999999999958 152.85099999999997 1.3009999999999957 160.24999999999997 4.436999999999996" stroke-linecap="round" />
</g>
<g transform="matrix(1 0 0 1 269.56 196.4)"  >
<path style="stroke: none; stroke-width: 1; stroke-dasharray: none; stroke-linecap: butt; stroke-dashoffset: 0; stroke-linejoin: miter; stroke-miterlimit: 4; fill: rgb(63,141,183); fill-rule: nonzero; opacity: 1;" vector-effect="non-scaling-stroke"  transform=" translate(-147.98, -35)" d="M 141 5 C 141 8 141 8 140 11 C 139.379 18.838 139.379 18.838 142 26 C 143.652 26.701999999999998 145.321 27.364 147 28 Q 149.355 29.2 151.688 30.438 C 156.64 32.955 161.636 34.596 167 36 C 167 39 167 39 165 41.438 C 162.151 43.871 161.107 44.286 157.75 45.312000000000005 C 155.558 46.11000000000001 155.558 46.11000000000001 154 48.00000000000001 C 152.966 53.36000000000001 152.899 58.55500000000001 153 64 L 148 65 L 147 48 L 142.375 46 C 136.337 42.964 132.805 39.248 130.16 33.022999999999996 C 128.405 27.264999999999997 128.494 21.348999999999997 130.977 15.827999999999996 C 133.647 11.246 136.764 8.153 141 5" stroke-linecap="round" />
</g>
<g transform="matrix(1 0 0 1 387.08 534.41)"  >
<path style="stroke: none; stroke-width: 1; stroke-dasharray: none; stroke-linecap: butt; stroke-dashoffset: 0; stroke-linejoin: miter; stroke-miterlimit: 4; fill: rgb(8,21,47); fill-rule: nonzero; opacity: 1;" vector-effect="non-scaling-stroke"  transform=" translate(-265.5, -373)" d="M 238.94 368.855 L 242.794 368.83500000000004 L 246.99200000000002 368.83200000000005 L 251.27100000000002 368.82200000000006 Q 255.762 368.81300000000005 260.254 368.81500000000005 C 264.094 368.81500000000005 267.933 368.80100000000004 271.77200000000005 368.78400000000005 Q 276.19200000000006 368.76900000000006 280.61500000000007 368.7710000000001 C 282.03034145560395 368.7699362815438 283.4456785655544 368.76560293664767 284.86100000000033 368.75800000000015 C 286.84100000000007 368.7480000000001 288.821 368.7520000000001 290.80100000000004 368.7580000000001 L 294.21600000000007 368.7530000000001 C 297 369 297 369 300 371 C 299.625 373.437 299.625 373.437 299 376 C 296.243 377.378 294.015 377.135 290.93 377.145 L 287.067 377.16499999999996 L 282.875 377.16799999999995 L 278.593 377.17799999999994 Q 274.105 377.18699999999995 269.615 377.18499999999995 C 265.77500000000003 377.18499999999995 261.935 377.19899999999996 258.095 377.21599999999995 Q 253.67300000000003 377.23099999999994 249.25200000000004 377.2289999999999 C 247.8353252272742 377.23006821396916 246.41865479791326 377.23440155881207 245.0020000000001 377.2420000000001 C 243.024674760566 377.2500010841379 241.04732523943406 377.2500010841379 239.07000000000002 377.2419999999999 L 235.65700000000004 377.2469999999999 C 233 377 233 377 231 375 C 231.756 368.8 232.944 368.875 238.94 368.855" stroke-linecap="round" />
</g>
<g transform="matrix(1 0 0 1 490.6 180.9)"  >
<path style="stroke: none; stroke-width: 1; stroke-dasharray: none; stroke-linecap: butt; stroke-dashoffset: 0; stroke-linejoin: miter; stroke-miterlimit: 4; fill: rgb(74,179,216); fill-rule: nonzero; opacity: 1;" vector-effect="non-scaling-stroke"  transform=" translate(-369.03, -19.5)" d="M 363 3 C 370.036 4.975 373.902 7.92 378 14 C 380.657 19.868000000000002 380.182 25.777 379 32 C 377.953 34.332 377.953 34.332 377 36 C 371.767 35.59 368.614 34.924 365 31 C 363.688 27.25 363.688 27.25 363 24 L 361 24 C 359.015 21.426000000000002 357.956 19.858 358.125 16.563 C 359.153 13.552999999999999 360.579 10.843 362 7.999999999999998 C 362.7 5.263999999999998 362.7 5.263999999999998 363 2.9999999999999982" stroke-linecap="round" />
</g>
<g transform="matrix(1 0 0 1 474.08 634.4)"  >
<path style="stroke: none; stroke-width: 1; stroke-dasharray: none; stroke-linecap: butt; stroke-dashoffset: 0; stroke-linejoin: miter; stroke-miterlimit: 4; fill: rgb(163,215,230); fill-rule: nonzero; opacity: 1;" vector-effect="non-scaling-stroke"  transform=" translate(-352.5, -473)" d="M 364 463 L 366 464 L 365 483 L 339 483 C 342.29 479.71 344.654 477.353 348.355 474.887 L 350.74 473.295 L 353.187 471.687 C 354.41700000000003 470.863 354.41700000000003 470.863 355.67 470.021 C 361.74 466 361.74 466 364 466 z" stroke-linecap="round" />
</g>
<g transform="matrix(1 0 0 1 420.58 601.77)"  >
<path style="stroke: none; stroke-width: 1; stroke-dasharray: none; stroke-linecap: butt; stroke-dashoffset: 0; stroke-linejoin: miter; stroke-miterlimit: 4; fill: rgb(62,153,196); fill-rule: nonzero; opacity: 1;" vector-effect="non-scaling-stroke"  transform=" translate(-299, -440.37)" d="M 238 439 C 253.46393152773828 438.9295470803513 268.92794293888807 438.87788037555646 284.3920000000014 438.8449999999975 C 291.572 438.829 298.752 438.80800000000005 305.932 438.774 Q 315.31800000000004 438.728 324.702 438.718 Q 329.675 438.713 334.644 438.683 C 338.342 438.661 342.038 438.658 345.736 438.659 L 349.075 438.627 L 352.122 438.639 L 354.772 438.63100000000003 C 357.445 439.074 358.323 439.927 360 442.00000000000006 Q 351.483 442.03700000000003 342.965 442.05500000000006 Q 340.065 442.06300000000005 337.16499999999996 442.07500000000005 C 334.393 442.088 331.61999999999995 442.093 328.84799999999996 442.09800000000007 L 326.21199999999993 442.11300000000006 C 324.1409999999999 442.11300000000006 322.06999999999994 442.06300000000005 319.99999999999994 442.00000000000006 L 318.99999999999994 441.00000000000006 C 316.4850441150942 440.8788688313483 313.96782346054823 440.81052045596 311.4499999999999 440.7950000000001 L 309.0559999999999 440.7650000000001 Q 305.11999999999995 440.7180000000001 301.1839999999999 440.6840000000001 L 295.7399999999999 440.6210000000001 Q 288.5599999999999 440.5390000000001 281.3829999999999 440.4680000000001 Q 274.06299999999993 440.3910000000001 266.7439999999999 440.3070000000001 Q 252.3719999999999 440.1450000000001 237.99999999999991 440.00000000000006 z" stroke-linecap="round" />
</g>
<g transform="matrix(1 0 0 1 491.55 180.9)"  >
<path style="stroke: none; stroke-width: 1; stroke-dasharray: none; stroke-linecap: butt; stroke-dashoffset: 0; stroke-linejoin: miter; stroke-miterlimit: 4; fill: rgb(129,179,195); fill-rule: nonzero; opacity: 1;" vector-effect="non-scaling-stroke"  transform=" translate(-369.97, -19.5)" d="M 363 3 C 370.036 4.975 373.902 7.92 378 14 C 380.657 19.868000000000002 380.182 25.777 379 32 C 377.953 34.332 377.953 34.332 377 36 L 374 36 L 374 34 L 376 34 C 376.326 23.811 376.326 23.811 374 14 L 372.313 15.563 C 370 17 370 17 367.563 16.875 C 364.756 15.917 362.473 14.625 360 13 z" stroke-linecap="round" />
</g>
<g transform="matrix(1 0 0 1 501.06 426.68)"  >
<path style="stroke: none; stroke-width: 1; stroke-dasharray: none; stroke-linecap: butt; stroke-dashoffset: 0; stroke-linejoin: miter; stroke-miterlimit: 4; fill: rgb(242,242,243); fill-rule: nonzero; opacity: 1;" vector-effect="non-scaling-stroke"  transform=" translate(-379.49, -265.28)" d="M 379.5 257 C 383.289 258.083 384.804 258.75 387 262 C 387.563 264.938 387.563 264.938 387 268 C 384.514 271.363 383.086 272.8 378.938 273.563 C 376 273 376 273 373.625 271.5 C 371.342 267.988 371.191 265.076 372 261 C 374.22 257.36 375.223 257 379.5 257" stroke-linecap="round" />
</g>
<g transform="matrix(1 0 0 1 178.91 527.4)"  >
<path style="stroke: none; stroke-width: 1; stroke-dasharray: none; stroke-linecap: butt; stroke-dashoffset: 0; stroke-linejoin: miter; stroke-miterlimit: 4; fill: rgb(73,83,105); fill-rule: nonzero; opacity: 1;" vector-effect="non-scaling-stroke"  transform=" translate(-57.34, -366)" d="M 57 321 C 59.68 324.886 58.993 328.783 58.625 333.25 C 57.487 350.453 57.925 367.656 58.438 384.875 L 58.497 386.941 C 58.724 394.66499999999996 59.077 402.325 60 410 L 58 411 C 55.724000000000004 390.742 54.69 370.64 54.688 350.25 L 54.678000000000004 347.05 C 54.672000000000004 344.017 54.682 340.985 54.699000000000005 337.95300000000003 L 54.697 335.21700000000004 C 54.754000000000005 330.10200000000003 55.347 325.84800000000007 57 321.00000000000006" stroke-linecap="round" />
</g>
<g transform="matrix(1 0 0 1 345.58 633.9)"  >
<path style="stroke: none; stroke-width: 1; stroke-dasharray: none; stroke-linecap: butt; stroke-dashoffset: 0; stroke-linejoin: miter; stroke-miterlimit: 4; fill: rgb(19,26,56); fill-rule: nonzero; opacity: 1;" vector-effect="non-scaling-stroke"  transform=" translate(-224, -472.5)" d="M 152 462 L 296 462 L 296 463 L 155 464 L 154 483 L 152 483 z" stroke-linecap="round" />
</g>
<g transform="matrix(1 0 0 1 277.08 170.72)"  >
<path style="stroke: none; stroke-width: 1; stroke-dasharray: none; stroke-linecap: butt; stroke-dashoffset: 0; stroke-linejoin: miter; stroke-miterlimit: 4; fill: rgb(97,178,206); fill-rule: nonzero; opacity: 1;" vector-effect="non-scaling-stroke"  transform=" translate(-155.5, -9.32)" d="M 160.313 4.563 C 164.478 6.92 166.58 9.917 169 14 L 169 16 L 166.438 15.5 C 162.95999999999998 14.9 162.95999999999998 14.9 159.25 15.063 C 156 15 156 15 154 13 C 153.586 10.836 153.586 10.836 153.375 8.375 L 153.148 5.898 L 153 4 L 149.188 4.938 L 147.04299999999998 5.465 C 145.343 5.91 143.66699999999997 6.445 141.99999999999997 7 L 142.99999999999997 4 C 148.70599999999996 2.098 154.77099999999996 2.097 160.31299999999996 4.563" stroke-linecap="round" />
</g>
<g transform="matrix(1 0 0 1 221.58 593.86)"  >
<path style="stroke: none; stroke-width: 1; stroke-dasharray: none; stroke-linecap: butt; stroke-dashoffset: 0; stroke-linejoin: miter; stroke-miterlimit: 4; fill: rgb(53,84,121); fill-rule: nonzero; opacity: 1;" vector-effect="non-scaling-stroke"  transform=" translate(-100, -432.46)" d="M 65 421 C 72.28 422.786 72.28 422.786 75 426 C 76.66259342473235 427.3384169293342 78.32926785375697 428.67175647255385 79.99999999999989 429.9999999999999 L 82 432 C 83.65 432.707 85.316 433.38 87 434 L 87 436 L 92 437 L 92 439 L 93.723 439.184 L 96.063 439.437 L 98.348 439.684 C 100.218 439.90700000000004 102.081 440.184 103.938 440.5 C 109.89 441.363 115.934 441.37 121.938 441.563 L 125.744 441.693 Q 130.371 441.852 135 442 L 135 443 C 93.626 444.836 93.626 444.836 80 434 L 76.71 431.797 C 72.009 428.613 68.43 425.553 65 421" stroke-linecap="round" />
</g>
<g transform="matrix(1 0 0 1 471.84 184.63)"  >
<path style="stroke: none; stroke-width: 1; stroke-dasharray: none; stroke-linecap: butt; stroke-dashoffset: 0; stroke-linejoin: miter; stroke-miterlimit: 4; fill: rgb(103,153,175); fill-rule: nonzero; opacity: 1;" vector-effect="non-scaling-stroke"  transform=" translate(-350.26, -23.23)" d="M 363 3 L 363 4 L 360.805 4.227 C 353.967 5.1240000000000006 353.967 5.1240000000000006 348.375 8.875 C 346.263 11.654 345.629 12.77 345 16 L 342 16 C 339.892 22.325 340.367 29.233 342.934 35.370999999999995 C 344.692 38.056999999999995 347.062 38.955 350 39.99999999999999 L 349 43.99999999999999 C 343.788 40.13499999999999 339.812 36.373999999999995 338 29.999999999999993 C 337.01 23.069999999999993 337.282 17.411999999999992 341.516 11.679999999999993 C 347.478 4.933 353.803 0.935 363 3" stroke-linecap="round" />
</g>
<g transform="matrix(1 0 0 1 387.08 534.33)"  >
<path style="stroke: none; stroke-width: 1; stroke-dasharray: none; stroke-linecap: butt; stroke-dashoffset: 0; stroke-linejoin: miter; stroke-miterlimit: 4; fill: rgb(3,45,77); fill-rule: nonzero; opacity: 1;" vector-effect="non-scaling-stroke"  transform=" translate(-265.5, -372.92)" d="M 238.94 368.855 L 242.794 368.83500000000004 L 246.99200000000002 368.83200000000005 L 251.27100000000002 368.82200000000006 Q 255.762 368.81300000000005 260.254 368.81500000000005 C 264.094 368.81500000000005 267.933 368.80100000000004 271.77200000000005 368.78400000000005 Q 276.19200000000006 368.76900000000006 280.61500000000007 368.7710000000001 C 282.03034145560395 368.7699362815438 283.4456785655544 368.76560293664767 284.86100000000033 368.75800000000015 C 286.84100000000007 368.7480000000001 288.821 368.7520000000001 290.80100000000004 368.7580000000001 L 294.21600000000007 368.7530000000001 C 297 369 297 369 300 371 L 299 376 C 297.5 374.625 297.5 374.625 296 373 L 296 371 L 234 370 L 234 375 L 238 377 C 235.625 377.125 235.625 377.125 233 377 L 231 375 C 231.756 368.8 232.944 368.875 238.94 368.855" stroke-linecap="round" />
</g>
<g transform="matrix(1 0 0 1 480.58 216.4)"  >
<path style="stroke: none; stroke-width: 1; stroke-dasharray: none; stroke-linecap: butt; stroke-dashoffset: 0; stroke-linejoin: miter; stroke-miterlimit: 4; fill: rgb(30,57,92); fill-rule: nonzero; opacity: 1;" vector-effect="non-scaling-stroke"  transform=" translate(-359, -55)" d="M 356 46 L 362 46 L 362 64 L 356 63 z" stroke-linecap="round" />
</g>
<g transform="matrix(1 0 0 1 272.08 217.4)"  >
<path style="stroke: none; stroke-width: 1; stroke-dasharray: none; stroke-linecap: butt; stroke-dashoffset: 0; stroke-linejoin: miter; stroke-miterlimit: 4; fill: rgb(33,68,102); fill-rule: nonzero; opacity: 1;" vector-effect="non-scaling-stroke"  transform=" translate(-150.5, -56)" d="M 147 47 L 154 47 L 153 64 L 148 65 z" stroke-linecap="round" />
</g>
<g transform="matrix(1 0 0 1 281.01 172.42)"  >
<path style="stroke: none; stroke-width: 1; stroke-dasharray: none; stroke-linecap: butt; stroke-dashoffset: 0; stroke-linejoin: miter; stroke-miterlimit: 4; fill: rgb(222,246,251); fill-rule: nonzero; opacity: 1;" vector-effect="non-scaling-stroke"  transform=" translate(-159.44, -11.02)" d="M 156 7 C 161.595 7.595 161.595 7.595 164 10 C 163.625 12.625 163.625 12.625 163 15 Q 159.5 15.061 156 15 C 155 14 155 14 154.875 11 C 155 8 155 8 156 7" stroke-linecap="round" />
</g>
<g transform="matrix(1 0 0 1 183.08 567.4)"  >
<path style="stroke: none; stroke-width: 1; stroke-dasharray: none; stroke-linecap: butt; stroke-dashoffset: 0; stroke-linejoin: miter; stroke-miterlimit: 4; fill: rgb(48,76,113); fill-rule: nonzero; opacity: 1;" vector-effect="non-scaling-stroke"  transform=" translate(-61.5, -406)" d="M 58 391 L 59 391 L 59.332 394.254 L 59.812 398.562 L 60.025 400.697 C 60.597 405.66 61.93 409.462 64 414 C 64.405 416.322 64.76 418.655 65 421 C 60.558 416.854 58.799 413.9 58.586 407.797 L 58.469 404.82800000000003 L 58.375 401.75000000000006 L 58.258 398.62500000000006 Q 58.117 394.813 58 391" stroke-linecap="round" />
</g>
<g transform="matrix(1 0 0 1 178.58 493.9)"  >
<path style="stroke: none; stroke-width: 1; stroke-dasharray: none; stroke-linecap: butt; stroke-dashoffset: 0; stroke-linejoin: miter; stroke-miterlimit: 4; fill: rgb(60,87,118); fill-rule: nonzero; opacity: 1;" vector-effect="non-scaling-stroke"  transform=" translate(-57.01, -332.5)" d="M 57 321 C 58.775 324.041 59.213 326.047 58.977 329.547 L 58.82 332.105 L 58.625 334.75 L 58.453 337.441 C 58.31177925380168 339.62799775559523 58.16077774351792 341.8143529563709 58.00000000000003 344 L 56 344 C 54.628 335.94 54.342 328.808 57 321" stroke-linecap="round" />
</g>

<g transform="matrix(1 0 0 1 488.48 173.31)"  >
<path style="stroke: none; stroke-width: 1; stroke-dasharray: none; stroke-linecap: butt; stroke-dashoffset: 0; stroke-linejoin: miter; stroke-miterlimit: 4; fill: rgb(230,249,252); fill-rule: nonzero; opacity: 1;" vector-effect="non-scaling-stroke"  transform=" translate(-366.91, -11.91)" d="M 366.438 7.813 C 369 8 369 8 371 10 C 370.625 12.625 370.625 12.625 370 15 C 367.625 15.625 367.625 15.625 365 16 C 363 14 363 14 362.813 11.437999999999999 C 363.065 8.159999999999998 363.15999999999997 8.064999999999998 366.438 7.811999999999999" stroke-linecap="round" />
</g>

<g transform="matrix(1 0 0 1 484.58 202.9)"  >
<path style="stroke: none; stroke-width: 1; stroke-dasharray: none; stroke-linecap: butt; stroke-dashoffset: 0; stroke-linejoin: miter; stroke-miterlimit: 4; fill: rgb(83,119,150); fill-rule: nonzero; opacity: 1;" vector-effect="non-scaling-stroke"  transform=" translate(-363, -41.5)" d="M 374 36 L 376 37 C 372.285 42.272999999999996 368.458 45.655 362 47 C 357.885 46.743 353.995 46 350 45 L 350 44 L 352.16 44.035 C 357.56300000000005 44.086 362.678 43.946 368 43 L 368 41 C 371.462 38 371.462 38 374 38 z" stroke-linecap="round" />
</g>
<g transform="matrix(0.88 0 0 2.14 602.64 429.96)" id="5a83995b-2838-4a26-b8de-e775a305bc59"  >
<circle style="stroke: rgb(0,0,0); stroke-width: 0; stroke-dasharray: none; stroke-linecap: butt; stroke-dashoffset: 0; stroke-linejoin: miter; stroke-miterlimit: 4; fill: rgb(68,175,214); fill-rule: nonzero; opacity: 1;" vector-effect="non-scaling-stroke"  cx="0" cy="0" r="35" />
</g>
<g transform="matrix(0.88 0 0 2.14 156.62 431.69)" id="5a83995b-2838-4a26-b8de-e775a305bc59"  >
<circle style="stroke: rgb(0,0,0); stroke-width: 0; stroke-dasharray: none; stroke-linecap: butt; stroke-dashoffset: 0; stroke-linejoin: miter; stroke-miterlimit: 4; fill: rgb(41,85,134); fill-rule: nonzero; opacity: 1;" vector-effect="non-scaling-stroke"  cx="0" cy="0" r="35" />
</g>
<g transform="matrix(1 0 0 1 292.88 428.41)"  >
<path style="stroke: none; stroke-width: 1; stroke-dasharray: none; stroke-linecap: butt; stroke-dashoffset: 0; stroke-linejoin: miter; stroke-miterlimit: 4; fill: rgb(242,242,243); fill-rule: nonzero; opacity: 1;" vector-effect="non-scaling-stroke"  transform=" translate(-379.49, -265.28)" d="M 379.5 257 C 383.289 258.083 384.804 258.75 387 262 C 387.563 264.938 387.563 264.938 387 268 C 384.514 271.363 383.086 272.8 378.938 273.563 C 376 273 376 273 373.625 271.5 C 371.342 267.988 371.191 265.076 372 261 C 374.22 257.36 375.223 257 379.5 257" stroke-linecap="round" />
</g>
</svg>